<svg width="20" height="20" viewBox="0 0 20 20" fill="none" xmlns="http://www.w3.org/2000/svg">
<path d="M10.0013 18.3327C14.6036 18.3327 18.3346 14.6017 18.3346 9.99935C18.3346 5.39697 14.6036 1.66602 10.0013 1.66602C5.39893 1.66602 1.66797 5.39697 1.66797 9.99935C1.66797 11.1484 1.90053 12.2432 2.32115 13.2391C2.55362 13.7894 2.66985 14.0647 2.68424 14.2727C2.69864 14.4807 2.63742 14.7094 2.51499 15.167L1.66797 18.3327L4.83361 17.4857C5.2912 17.3633 5.52 17.302 5.72799 17.3164C5.93598 17.3308 6.21118 17.447 6.76159 17.6795C7.75751 18.1001 8.85222 18.3327 10.0013 18.3327Z" stroke="white" stroke-width="1.25" stroke-linejoin="round"/>
<path d="M7.15549 10.3151L7.88127 9.41365C8.18716 9.03373 8.56528 8.68007 8.59495 8.1742C8.60236 8.04643 8.51253 7.47279 8.3327 6.32553C8.26204 5.87466 7.84108 5.83398 7.47646 5.83398C7.00131 5.83398 6.76374 5.83398 6.52782 5.94174C6.22965 6.07794 5.92352 6.46091 5.85634 6.78176C5.80319 7.03562 5.84269 7.21054 5.92169 7.56039C6.25722 9.04632 7.04437 10.5138 8.26493 11.7344C9.48553 12.955 10.953 13.7422 12.4389 14.0777C12.7888 14.1567 12.9637 14.1962 13.2176 14.143C13.5384 14.0758 13.9214 13.7697 14.0576 13.4715C14.1654 13.2356 14.1654 12.9981 14.1654 12.5229C14.1654 12.1582 14.1247 11.7373 13.6738 11.6667C12.5265 11.4868 11.9529 11.397 11.8251 11.4044C11.3193 11.4341 10.9656 11.8122 10.5857 12.1181L9.68428 12.8438" stroke="white" stroke-width="1.25"/>
</svg>
