<svg width="20" height="20" viewBox="0 0 20 20" fill="none" xmlns="http://www.w3.org/2000/svg">
<path d="M10.0013 17.0827C11.5094 17.0827 12.9556 16.9337 14.2958 16.6605C15.9699 16.3193 16.807 16.1486 17.5708 15.1665C18.3346 14.1844 18.3346 13.0571 18.3346 10.8023V9.19643C18.3346 6.94162 18.3346 5.81424 17.5708 4.83216C16.807 3.85008 15.9699 3.67946 14.2958 3.3382C12.9556 3.06499 11.5094 2.91602 10.0013 2.91602C8.49322 2.91602 7.04704 3.06499 5.70677 3.3382C4.03269 3.67946 3.19564 3.85008 2.4318 4.83216C1.66797 5.81424 1.66797 6.94162 1.66797 9.19643V10.8023C1.66797 13.0571 1.66797 14.1844 2.4318 15.1665C3.19564 16.1486 4.03269 16.3193 5.70677 16.6605C7.04704 16.9337 8.49322 17.0827 10.0013 17.0827Z" stroke="white" stroke-width="1.25"/>
<path d="M13.3017 10.2614C13.1781 10.7662 12.5201 11.1288 11.2041 11.8541C9.77267 12.6427 9.057 13.0371 8.47733 12.8852C8.281 12.8337 8.10017 12.7432 7.94832 12.6205C7.5 12.2581 7.5 11.5056 7.5 10.0006C7.5 8.49573 7.5 7.74325 7.94832 7.3808C8.10017 7.25803 8.281 7.16756 8.47733 7.1161C9.057 6.96416 9.77267 7.35852 11.2041 8.14726C12.5201 8.87248 13.1781 9.23507 13.3017 9.7399C13.3438 9.91173 13.3438 10.0896 13.3017 10.2614Z" stroke="white" stroke-width="1.25" stroke-linejoin="round"/>
</svg>
